<?xml version='1.0' encoding='UTF-8'?>
<svg width="94mm" height="94mm" version="1.1" viewBox="0 0 94 94" xmlns="http://www.w3.org/2000/svg"><path d="M6,6H8V8H6zM8,6H10V8H8zM10,6H12V8H10zM12,6H14V8H12zM14,6H16V8H14zM16,6H18V8H16zM18,6H20V8H18zM22,6H24V8H22zM34,6H36V8H34zM36,6H38V8H36zM38,6H40V8H38zM42,6H44V8H42zM44,6H46V8H44zM46,6H48V8H46zM48,6H50V8H48zM50,6H52V8H50zM54,6H56V8H54zM58,6H60V8H58zM64,6H66V8H64zM66,6H68V8H66zM74,6H76V8H74zM76,6H78V8H76zM78,6H80V8H78zM80,6H82V8H80zM82,6H84V8H82zM84,6H86V8H84zM86,6H88V8H86zM6,8H8V10H6zM18,8H20V10H18zM24,8H26V10H24zM32,8H34V10H32zM34,8H36V10H34zM36,8H38V10H36zM38,8H40V10H38zM42,8H44V10H42zM46,8H48V10H46zM50,8H52V10H50zM52,8H54V10H52zM54,8H56V10H54zM56,8H58V10H56zM58,8H60V10H58zM66,8H68V10H66zM70,8H72V10H70zM74,8H76V10H74zM86,8H88V10H86zM6,10H8V12H6zM10,10H12V12H10zM12,10H14V12H12zM14,10H16V12H14zM18,10H20V12H18zM22,10H24V12H22zM26,10H28V12H26zM30,10H32V12H30zM32,10H34V12H32zM34,10H36V12H34zM36,10H38V12H36zM38,10H40V12H38zM40,10H42V12H40zM44,10H46V12H44zM46,10H48V12H46zM54,10H56V12H54zM56,10H58V12H56zM62,10H64V12H62zM74,10H76V12H74zM78,10H80V12H78zM80,10H82V12H80zM82,10H84V12H82zM86,10H88V12H86zM6,12H8V14H6zM10,12H12V14H10zM12,12H14V14H12zM14,12H16V14H14zM18,12H20V14H18zM26,12H28V14H26zM28,12H30V14H28zM30,12H32V14H30zM32,12H34V14H32zM40,12H42V14H40zM42,12H44V14H42zM46,12H48V14H46zM48,12H50V14H48zM50,12H52V14H50zM60,12H62V14H60zM62,12H64V14H62zM66,12H68V14H66zM68,12H70V14H68zM74,12H76V14H74zM78,12H80V14H78zM80,12H82V14H80zM82,12H84V14H82zM86,12H88V14H86zM6,14H8V16H6zM10,14H12V16H10zM12,14H14V16H12zM14,14H16V16H14zM18,14H20V16H18zM22,14H24V16H22zM24,14H26V16H24zM26,14H28V16H26zM36,14H38V16H36zM44,14H46V16H44zM46,14H48V16H46zM50,14H52V16H50zM56,14H58V16H56zM62,14H64V16H62zM68,14H70V16H68zM70,14H72V16H70zM74,14H76V16H74zM78,14H80V16H78zM80,14H82V16H80zM82,14H84V16H82zM86,14H88V16H86zM6,16H8V18H6zM18,16H20V18H18zM32,16H34V18H32zM34,16H36V18H34zM44,16H46V18H44zM50,16H52V18H50zM52,16H54V18H52zM56,16H58V18H56zM64,16H66V18H64zM70,16H72V18H70zM74,16H76V18H74zM86,16H88V18H86zM6,18H8V20H6zM8,18H10V20H8zM10,18H12V20H10zM12,18H14V20H12zM14,18H16V20H14zM16,18H18V20H16zM18,18H20V20H18zM22,18H24V20H22zM26,18H28V20H26zM30,18H32V20H30zM34,18H36V20H34zM38,18H40V20H38zM42,18H44V20H42zM46,18H48V20H46zM50,18H52V20H50zM54,18H56V20H54zM58,18H60V20H58zM62,18H64V20H62zM66,18H68V20H66zM70,18H72V20H70zM74,18H76V20H74zM76,18H78V20H76zM78,18H80V20H78zM80,18H82V20H80zM82,18H84V20H82zM84,18H86V20H84zM86,18H88V20H86zM22,20H24V22H22zM24,20H26V22H24zM28,20H30V22H28zM34,20H36V22H34zM38,20H40V22H38zM40,20H42V22H40zM42,20H44V22H42zM50,20H52V22H50zM52,20H54V22H52zM54,20H56V22H54zM56,20H58V22H56zM58,20H60V22H58zM60,20H62V22H60zM62,20H64V22H62zM66,20H68V22H66zM70,20H72V22H70zM16,22H18V24H16zM18,22H20V24H18zM24,22H26V24H24zM26,22H28V24H26zM30,22H32V24H30zM40,22H42V24H40zM42,22H44V24H42zM44,22H46V24H44zM46,22H48V24H46zM48,22H50V24H48zM52,22H54V24H52zM54,22H56V24H54zM58,22H60V24H58zM64,22H66V24H64zM70,22H72V24H70zM74,22H76V24H74zM78,22H80V24H78zM82,22H84V24H82zM86,22H88V24H86zM12,24H14V26H12zM14,24H16V26H14zM16,24H18V26H16zM20,24H22V26H20zM22,24H24V26H22zM24,24H26V26H24zM26,24H28V26H26zM32,24H34V26H32zM34,24H36V26H34zM36,24H38V26H36zM46,24H48V26H46zM54,24H56V26H54zM60,24H62V26H60zM62,24H64V26H62zM66,24H68V26H66zM68,24H70V26H68zM76,24H78V26H76zM78,24H80V26H78zM8,26H10V28H8zM10,26H12V28H10zM16,26H18V28H16zM18,26H20V28H18zM20,26H22V28H20zM30,26H32V28H30zM44,26H46V28H44zM52,26H54V28H52zM54,26H56V28H54zM56,26H58V28H56zM60,26H62V28H60zM62,26H64V28H62zM64,26H66V28H64zM66,26H68V28H66zM70,26H72V28H70zM72,26H74V28H72zM76,26H78V28H76zM78,26H80V28H78zM6,28H8V30H6zM10,28H12V30H10zM12,28H14V30H12zM16,28H18V30H16zM20,28H22V30H20zM22,28H24V30H22zM28,28H30V30H28zM34,28H36V30H34zM36,28H38V30H36zM42,28H44V30H42zM44,28H46V30H44zM46,28H48V30H46zM48,28H50V30H48zM52,28H54V30H52zM58,28H60V30H58zM62,28H64V30H62zM66,28H68V30H66zM68,28H70V30H68zM70,28H72V30H70zM72,28H74V30H72zM76,28H78V30H76zM78,28H80V30H78zM80,28H82V30H80zM10,30H12V32H10zM16,30H18V32H16zM18,30H20V32H18zM30,30H32V32H30zM32,30H34V32H32zM34,30H36V32H34zM36,30H38V32H36zM38,30H40V32H38zM46,30H48V32H46zM48,30H50V32H48zM58,30H60V32H58zM60,30H62V32H60zM70,30H72V32H70zM72,30H74V32H72zM74,30H76V32H74zM76,30H78V32H76zM86,30H88V32H86zM8,32H10V34H8zM12,32H14V34H12zM14,32H16V34H14zM22,32H24V34H22zM28,32H30V34H28zM30,32H32V34H30zM32,32H34V34H32zM34,32H36V34H34zM36,32H38V34H36zM38,32H40V34H38zM50,32H52V34H50zM52,32H54V34H52zM54,32H56V34H54zM56,32H58V34H56zM64,32H66V34H64zM66,32H68V34H66zM70,32H72V34H70zM72,32H74V34H72zM76,32H78V34H76zM78,32H80V34H78zM80,32H82V34H80zM82,32H84V34H82zM84,32H86V34H84zM86,32H88V34H86zM16,34H18V36H16zM18,34H20V36H18zM20,34H22V36H20zM22,34H24V36H22zM26,34H28V36H26zM36,34H38V36H36zM38,34H40V36H38zM40,34H42V36H40zM42,34H44V36H42zM46,34H48V36H46zM48,34H50V36H48zM50,34H52V36H50zM52,34H54V36H52zM54,34H56V36H54zM56,34H58V36H56zM60,34H62V36H60zM62,34H64V36H62zM64,34H66V36H64zM68,34H70V36H68zM72,34H74V36H72zM78,34H80V36H78zM80,34H82V36H80zM82,34H84V36H82zM10,36H12V38H10zM12,36H14V38H12zM22,36H24V38H22zM24,36H26V38H24zM26,36H28V38H26zM30,36H32V38H30zM36,36H38V38H36zM40,36H42V38H40zM46,36H48V38H46zM52,36H54V38H52zM56,36H58V38H56zM62,36H64V38H62zM66,36H68V38H66zM68,36H70V38H68zM72,36H74V38H72zM76,36H78V38H76zM82,36H84V38H82zM86,36H88V38H86zM6,38H8V40H6zM10,38H12V40H10zM14,38H16V40H14zM18,38H20V40H18zM26,38H28V40H26zM28,38H30V40H28zM38,38H40V40H38zM44,38H46V40H44zM48,38H50V40H48zM58,38H60V40H58zM60,38H62V40H60zM64,38H66V40H64zM68,38H70V40H68zM72,38H74V40H72zM76,38H78V40H76zM82,38H84V40H82zM84,38H86V40H84zM6,40H8V42H6zM16,40H18V42H16zM20,40H22V42H20zM22,40H24V42H22zM26,40H28V42H26zM30,40H32V42H30zM36,40H38V42H36zM38,40H40V42H38zM46,40H48V42H46zM50,40H52V42H50zM52,40H54V42H52zM60,40H62V42H60zM64,40H66V42H64zM66,40H68V42H66zM68,40H70V42H68zM70,40H72V42H70zM72,40H74V42H72zM74,40H76V42H74zM76,40H78V42H76zM78,40H80V42H78zM86,40H88V42H86zM6,42H8V44H6zM10,42H12V44H10zM12,42H14V44H12zM14,42H16V44H14zM18,42H20V44H18zM24,42H26V44H24zM30,42H32V44H30zM32,42H34V44H32zM40,42H42V44H40zM46,42H48V44H46zM50,42H52V44H50zM52,42H54V44H52zM54,42H56V44H54zM56,42H58V44H56zM60,42H62V44H60zM62,42H64V44H62zM68,42H70V44H68zM72,42H74V44H72zM74,42H76V44H74zM76,42H78V44H76zM78,42H80V44H78zM80,42H82V44H80zM82,42H84V44H82zM86,42H88V44H86zM10,44H12V46H10zM14,44H16V46H14zM20,44H22V46H20zM24,44H26V46H24zM26,44H28V46H26zM28,44H30V46H28zM32,44H34V46H32zM34,44H36V46H34zM36,44H38V46H36zM42,44H44V46H42zM44,44H46V46H44zM48,44H50V46H48zM58,44H60V46H58zM64,44H66V46H64zM66,44H68V46H66zM68,44H70V46H68zM70,44H72V46H70zM72,44H74V46H72zM78,44H80V46H78zM6,46H8V48H6zM10,46H12V48H10zM16,46H18V48H16zM18,46H20V48H18zM20,46H22V48H20zM22,46H24V48H22zM28,46H30V48H28zM30,46H32V48H30zM32,46H34V48H32zM34,46H36V48H34zM38,46H40V48H38zM44,46H46V48H44zM46,46H48V48H46zM48,46H50V48H48zM50,46H52V48H50zM68,46H70V48H68zM72,46H74V48H72zM78,46H80V48H78zM82,46H84V48H82zM6,48H8V50H6zM10,48H12V50H10zM14,48H16V50H14zM20,48H22V50H20zM22,48H24V50H22zM26,48H28V50H26zM28,48H30V50H28zM30,48H32V50H30zM34,48H36V50H34zM36,48H38V50H36zM38,48H40V50H38zM40,48H42V50H40zM42,48H44V50H42zM46,48H48V50H46zM48,48H50V50H48zM54,48H56V50H54zM56,48H58V50H56zM60,48H62V50H60zM62,48H64V50H62zM64,48H66V50H64zM66,48H68V50H66zM68,48H70V50H68zM76,48H78V50H76zM80,48H82V50H80zM6,50H8V52H6zM14,50H16V52H14zM16,50H18V52H16zM18,50H20V52H18zM26,50H28V52H26zM28,50H30V52H28zM30,50H32V52H30zM34,50H36V52H34zM40,50H42V52H40zM46,50H48V52H46zM54,50H56V52H54zM60,50H62V52H60zM64,50H66V52H64zM74,50H76V52H74zM80,50H82V52H80zM8,52H10V54H8zM12,52H14V54H12zM14,52H16V54H14zM16,52H18V54H16zM20,52H22V54H20zM24,52H26V54H24zM32,52H34V54H32zM34,52H36V54H34zM38,52H40V54H38zM40,52H42V54H40zM42,52H44V54H42zM46,52H48V54H46zM50,52H52V54H50zM52,52H54V54H52zM56,52H58V54H56zM58,52H60V54H58zM62,52H64V54H62zM68,52H70V54H68zM70,52H72V54H70zM72,52H74V54H72zM76,52H78V54H76zM80,52H82V54H80zM84,52H86V54H84zM86,52H88V54H86zM18,54H20V56H18zM22,54H24V56H22zM34,54H36V56H34zM36,54H38V56H36zM52,54H54V56H52zM62,54H64V56H62zM68,54H70V56H68zM70,54H72V56H70zM74,54H76V56H74zM76,54H78V56H76zM80,54H82V56H80zM6,56H8V58H6zM12,56H14V58H12zM14,56H16V58H14zM16,56H18V58H16zM22,56H24V58H22zM40,56H42V58H40zM42,56H44V58H42zM48,56H50V58H48zM52,56H54V58H52zM58,56H60V58H58zM60,56H62V58H60zM62,56H64V58H62zM66,56H68V58H66zM68,56H70V58H68zM74,56H76V58H74zM76,56H78V58H76zM78,56H80V58H78zM80,56H82V58H80zM84,56H86V58H84zM86,56H88V58H86zM6,58H8V60H6zM10,58H12V60H10zM12,58H14V60H12zM14,58H16V60H14zM18,58H20V60H18zM20,58H22V60H20zM22,58H24V60H22zM24,58H26V60H24zM26,58H28V60H26zM28,58H30V60H28zM30,58H32V60H30zM34,58H36V60H34zM40,58H42V60H40zM42,58H44V60H42zM44,58H46V60H44zM46,58H48V60H46zM54,58H56V60H54zM56,58H58V60H56zM58,58H60V60H58zM60,58H62V60H60zM62,58H64V60H62zM64,58H66V60H64zM66,58H68V60H66zM70,58H72V60H70zM74,58H76V60H74zM78,58H80V60H78zM6,60H8V62H6zM10,60H12V62H10zM12,60H14V62H12zM26,60H28V62H26zM32,60H34V62H32zM38,60H40V62H38zM48,60H50V62H48zM50,60H52V62H50zM54,60H56V62H54zM58,60H60V62H58zM60,60H62V62H60zM62,60H64V62H62zM68,60H70V62H68zM76,60H78V62H76zM78,60H80V62H78zM80,60H82V62H80zM82,60H84V62H82zM86,60H88V62H86zM6,62H8V64H6zM8,62H10V64H8zM10,62H12V64H10zM18,62H20V64H18zM20,62H22V64H20zM24,62H26V64H24zM34,62H36V64H34zM36,62H38V64H36zM38,62H40V64H38zM40,62H42V64H40zM46,62H48V64H46zM54,62H56V64H54zM58,62H60V64H58zM60,62H62V64H60zM64,62H66V64H64zM68,62H70V64H68zM70,62H72V64H70zM74,62H76V64H74zM80,62H82V64H80zM82,62H84V64H82zM84,62H86V64H84zM86,62H88V64H86zM6,64H8V66H6zM14,64H16V66H14zM16,64H18V66H16zM32,64H34V66H32zM34,64H36V66H34zM36,64H38V66H36zM38,64H40V66H38zM42,64H44V66H42zM44,64H46V66H44zM48,64H50V66H48zM50,64H52V66H50zM52,64H54V66H52zM54,64H56V66H54zM58,64H60V66H58zM62,64H64V66H62zM66,64H68V66H66zM76,64H78V66H76zM78,64H80V66H78zM80,64H82V66H80zM82,64H84V66H82zM84,64H86V66H84zM86,64H88V66H86zM6,66H8V68H6zM8,66H10V68H8zM12,66H14V68H12zM14,66H16V68H14zM18,66H20V68H18zM20,66H22V68H20zM24,66H26V68H24zM26,66H28V68H26zM28,66H30V68H28zM30,66H32V68H30zM32,66H34V68H32zM36,66H38V68H36zM42,66H44V68H42zM46,66H48V68H46zM50,66H52V68H50zM56,66H58V68H56zM62,66H64V68H62zM64,66H66V68H64zM68,66H70V68H68zM72,66H74V68H72zM78,66H80V68H78zM82,66H84V68H82zM86,66H88V68H86zM6,68H8V70H6zM10,68H12V70H10zM14,68H16V70H14zM20,68H22V70H20zM24,68H26V70H24zM30,68H32V70H30zM32,68H34V70H32zM34,68H36V70H34zM38,68H40V70H38zM42,68H44V70H42zM44,68H46V70H44zM46,68H48V70H46zM50,68H52V70H50zM54,68H56V70H54zM56,68H58V70H56zM58,68H60V70H58zM60,68H62V70H60zM62,68H64V70H62zM66,68H68V70H66zM74,68H76V70H74zM76,68H78V70H76zM80,68H82V70H80zM84,68H86V70H84zM6,70H8V72H6zM12,70H14V72H12zM14,70H16V72H14zM18,70H20V72H18zM20,70H22V72H20zM32,70H34V72H32zM46,70H48V72H46zM52,70H54V72H52zM56,70H58V72H56zM62,70H64V72H62zM64,70H66V72H64zM70,70H72V72H70zM72,70H74V72H72zM74,70H76V72H74zM76,70H78V72H76zM78,70H80V72H78zM82,70H84V72H82zM84,70H86V72H84zM22,72H24V74H22zM34,72H36V74H34zM36,72H38V74H36zM40,72H42V74H40zM48,72H50V74H48zM52,72H54V74H52zM54,72H56V74H54zM56,72H58V74H56zM60,72H62V74H60zM66,72H68V74H66zM70,72H72V74H70zM78,72H80V74H78zM80,72H82V74H80zM84,72H86V74H84zM6,74H8V76H6zM8,74H10V76H8zM10,74H12V76H10zM12,74H14V76H12zM14,74H16V76H14zM16,74H18V76H16zM18,74H20V76H18zM26,74H28V76H26zM28,74H30V76H28zM36,74H38V76H36zM44,74H46V76H44zM52,74H54V76H52zM54,74H56V76H54zM56,74H58V76H56zM60,74H62V76H60zM62,74H64V76H62zM66,74H68V76H66zM68,74H70V76H68zM70,74H72V76H70zM74,74H76V76H74zM78,74H80V76H78zM80,74H82V76H80zM82,74H84V76H82zM6,76H8V78H6zM18,76H20V78H18zM22,76H24V78H22zM24,76H26V78H24zM28,76H30V78H28zM30,76H32V78H30zM34,76H36V78H34zM36,76H38V78H36zM38,76H40V78H38zM46,76H48V78H46zM52,76H54V78H52zM58,76H60V78H58zM62,76H64V78H62zM70,76H72V78H70zM78,76H80V78H78zM80,76H82V78H80zM84,76H86V78H84zM6,78H8V80H6zM10,78H12V80H10zM12,78H14V80H12zM14,78H16V80H14zM18,78H20V80H18zM24,78H26V80H24zM28,78H30V80H28zM32,78H34V80H32zM34,78H36V80H34zM38,78H40V80H38zM40,78H42V80H40zM56,78H58V80H56zM60,78H62V80H60zM62,78H64V80H62zM64,78H66V80H64zM66,78H68V80H66zM68,78H70V80H68zM70,78H72V80H70zM72,78H74V80H72zM74,78H76V80H74zM76,78H78V80H76zM78,78H80V80H78zM80,78H82V80H80zM6,80H8V82H6zM10,80H12V82H10zM12,80H14V82H12zM14,80H16V82H14zM18,80H20V82H18zM24,80H26V82H24zM28,80H30V82H28zM32,80H34V82H32zM36,80H38V82H36zM44,80H46V82H44zM50,80H52V82H50zM58,80H60V82H58zM60,80H62V82H60zM62,80H64V82H62zM64,80H66V82H64zM68,80H70V82H68zM70,80H72V82H70zM76,80H78V82H76zM80,80H82V82H80zM82,80H84V82H82zM86,80H88V82H86zM6,82H8V84H6zM10,82H12V84H10zM12,82H14V84H12zM14,82H16V84H14zM18,82H20V84H18zM28,82H30V84H28zM38,82H40V84H38zM40,82H42V84H40zM42,82H44V84H42zM48,82H50V84H48zM52,82H54V84H52zM54,82H56V84H54zM60,82H62V84H60zM62,82H64V84H62zM66,82H68V84H66zM68,82H70V84H68zM70,82H72V84H70zM72,82H74V84H72zM74,82H76V84H74zM76,82H78V84H76zM78,82H80V84H78zM84,82H86V84H84zM6,84H8V86H6zM18,84H20V86H18zM24,84H26V86H24zM26,84H28V86H26zM28,84H30V86H28zM30,84H32V86H30zM34,84H36V86H34zM36,84H38V86H36zM40,84H42V86H40zM48,84H50V86H48zM50,84H52V86H50zM52,84H54V86H52zM68,84H70V86H68zM72,84H74V86H72zM78,84H80V86H78zM82,84H84V86H82zM86,84H88V86H86zM6,86H8V88H6zM8,86H10V88H8zM10,86H12V88H10zM12,86H14V88H12zM14,86H16V88H14zM16,86H18V88H16zM18,86H20V88H18zM24,86H26V88H24zM26,86H28V88H26zM28,86H30V88H28zM34,86H36V88H34zM38,86H40V88H38zM44,86H46V88H44zM50,86H52V88H50zM56,86H58V88H56zM58,86H60V88H58zM60,86H62V88H60zM64,86H66V88H64zM68,86H70V88H68zM72,86H74V88H72zM74,86H76V88H74zM76,86H78V88H76zM78,86H80V88H78z" id="qr-path" fill="#000000" fill-opacity="1" fill-rule="nonzero" stroke="none"/></svg>